<?xml version="1.0" encoding="UTF-8"?>
<svg xmlns="http://www.w3.org/2000/svg" width="563" height="37" viewBox="0 0 563 37" fill="none">
  <path d="M15.15 17.85L9.15 13.4C8.3 12.8 7.95 12.25 7.95 11.15V7.85C7.95 7 8.35 6.6 9.2 6.6H9.75C10.6 6.6 11 7 11 7.85V13.6H17.85V7.2C17.85 2.85 15.7 0.699998 11.35 0.699998H7.55C3.2 0.699998 1.05 2.85 1.05 7.2V12.75C1.05 15.25 1.7 16.7 3.85 18.25L9.85 22.7C10.7 23.3 11.05 23.85 11.05 24.95V29.15C11.05 30 10.65 30.4 9.8 30.4H9.15C8.3 30.4 7.9 30 7.9 29.15V22.35H1.05V29.8C1.05 34.15 3.2 36.3 7.55 36.3H11.45C15.8 36.3 17.95 34.15 17.95 29.8V23.35C17.95 20.75 17.3 19.4 15.15 17.85ZM38.5547 36L33.9547 0.999998H24.4047L19.8047 36H26.1547L26.6547 30.9H31.0547L31.6047 36H38.5547ZM28.8547 9.55L30.4047 24.8H27.3047L28.8547 9.55ZM41.043 0.999998V36H48.043V21.7H53.543V15.45H48.043V7.25H53.793V0.999998H41.043ZM56.7402 0.999998V36H69.8402V29.75H63.7402V21.35H69.4902V15.1H63.7402V7.25H69.7402V0.999998H56.7402ZM94.8094 19.45C96.7094 18.75 97.8094 17.25 97.8094 14.25V7.5C97.8094 3.15 95.6594 0.999998 91.3094 0.999998H80.8594V36H87.8594V22.75H89.6094C90.4594 22.75 90.8594 23.15 90.8594 24V36H97.8594V23.95C97.8594 21.4 96.9594 20.05 94.8094 19.45ZM90.8094 8.35V15.55C90.8094 16.4 90.4094 16.8 89.5594 16.8H87.8594V7.1H89.5594C90.4094 7.1 90.8094 7.5 90.8094 8.35ZM118.945 36L114.345 0.999998H104.795L100.195 36H106.545L107.045 30.9H111.445L111.995 36H118.945ZM109.245 9.55L110.795 24.8H107.695L109.245 9.55ZM132.82 36L137.52 0.999998H131.02L128.47 25.85L126.02 0.999998H118.92L123.62 36H132.82ZM140.012 0.999998V36H153.112V29.75H147.012V21.35H152.762V15.1H147.012V7.25H153.012V0.999998H140.012ZM261.302 17.85L255.302 13.4C254.452 12.8 254.102 12.25 254.102 11.15V7.85C254.102 7 254.502 6.6 255.352 6.6H255.902C256.752 6.6 257.152 7 257.152 7.85V13.6H264.002V7.2C264.002 2.85 261.852 0.699998 257.502 0.699998H253.702C249.352 0.699998 247.202 2.85 247.202 7.2V12.75C247.202 15.25 247.852 16.7 250.002 18.25L256.002 22.7C256.852 23.3 257.202 23.85 257.202 24.95V29.15C257.202 30 256.802 30.4 255.952 30.4H255.302C254.452 30.4 254.052 30 254.052 29.15V22.35H247.202V29.8C247.202 34.15 249.352 36.3 253.702 36.3H257.602C261.952 36.3 264.102 34.15 264.102 29.8V23.35C264.102 20.75 263.452 19.4 261.302 17.85ZM284.707 36L280.107 0.999998H270.557L265.957 36H272.307L272.807 30.9H277.207L277.757 36H284.707ZM275.007 9.55L276.557 24.8H273.457L275.007 9.55ZM287.195 0.999998V36H294.195V21.7H299.695V15.45H294.195V7.25H299.945V0.999998H287.195ZM302.893 0.999998V36H315.993V29.75H309.893V21.35H315.643V15.1H309.893V7.25H315.893V0.999998H302.893ZM340.962 19.45C342.862 18.75 343.962 17.25 343.962 14.25V7.5C343.962 3.15 341.812 0.999998 337.462 0.999998H327.012V36H334.012V22.75H335.762C336.612 22.75 337.012 23.15 337.012 24V36H344.012V23.95C344.012 21.4 343.112 20.05 340.962 19.45ZM336.962 8.35V15.55C336.962 16.4 336.562 16.8 335.712 16.8H334.012V7.1H335.712C336.562 7.1 336.962 7.5 336.962 8.35ZM365.098 36L360.498 0.999998H350.948L346.348 36H352.698L353.198 30.9H357.598L358.148 36H365.098ZM355.398 9.55L356.948 24.8H353.848L355.398 9.55ZM378.972 36L383.672 0.999998H377.172L374.622 25.85L372.172 0.999998H365.072L369.772 36H378.972ZM386.164 0.999998V36H399.264V29.75H393.164V21.35H398.914V15.1H393.164V7.25H399.164V0.999998H386.164Z" fill="black"></path>
  <path d="M15.15 17.85L14.8521 18.2516L14.8576 18.2556L15.15 17.85ZM9.15 13.4L9.44794 12.9983L9.43834 12.9915L9.15 13.4ZM11 13.6H10.5V14.1H11V13.6ZM17.85 13.6V14.1H18.35V13.6H17.85ZM3.85 18.25L4.14788 17.8484L4.1424 17.8444L3.85 18.25ZM9.85 22.7L9.55206 23.1017L9.56166 23.1085L9.85 22.7ZM7.9 22.35H8.4V21.85H7.9V22.35ZM1.05 22.35V21.85H0.55V22.35H1.05ZM15.4479 17.4484L9.44785 12.9984L8.85215 13.8016L14.8521 18.2516L15.4479 17.4484ZM9.43834 12.9915C9.04262 12.7122 8.81067 12.4768 8.6687 12.2203C8.52889 11.9678 8.45 11.6467 8.45 11.15H7.45C7.45 11.7533 7.54611 12.2572 7.7938 12.7047C8.03934 13.1482 8.40738 13.4878 8.86166 13.8085L9.43834 12.9915ZM8.45 11.15V7.85H7.45V11.15H8.45ZM8.45 7.85C8.45 7.49443 8.53413 7.33548 8.6098 7.2598C8.68548 7.18413 8.84443 7.1 9.2 7.1V6.1C8.70557 6.1 8.23952 6.21587 7.9027 6.5527C7.56587 6.88952 7.45 7.35557 7.45 7.85H8.45ZM9.2 7.1H9.75V6.1H9.2V7.1ZM9.75 7.1C10.1056 7.1 10.2645 7.18413 10.3402 7.2598C10.4159 7.33548 10.5 7.49443 10.5 7.85H11.5C11.5 7.35557 11.3841 6.88952 11.0473 6.5527C10.7105 6.21587 10.2444 6.1 9.75 6.1V7.1ZM10.5 7.85V13.6H11.5V7.85H10.5ZM11 14.1H17.85V13.1H11V14.1ZM18.35 13.6V7.2H17.35V13.6H18.35ZM18.35 7.2C18.35 4.94939 17.7936 3.17401 16.5848 1.96519C15.376 0.756377 13.6006 0.199999 11.35 0.199999V1.2C13.4494 1.2 14.924 1.71862 15.8777 2.6723C16.8314 3.62598 17.35 5.10061 17.35 7.2H18.35ZM11.35 0.199999H7.55V1.2H11.35V0.199999ZM7.55 0.199999C5.29939 0.199999 3.52401 0.756377 2.3152 1.96519C1.10638 3.17401 0.55 4.94939 0.55 7.2H1.55C1.55 5.10061 2.06862 3.62598 3.0223 2.6723C3.97599 1.71862 5.45061 1.2 7.55 1.2V0.199999ZM0.55 7.2V12.75H1.55V7.2H0.55ZM0.55 12.75C0.55 14.0412 0.717303 15.1144 1.19589 16.0786C1.6752 17.0441 2.44248 17.8517 3.5576 18.6556L4.1424 17.8444C3.10752 17.0983 2.4748 16.4059 2.09161 15.6339C1.7077 14.8605 1.55 13.9588 1.55 12.75H0.55ZM3.55215 18.6516L9.55215 23.1016L10.1479 22.2984L4.14785 17.8484L3.55215 18.6516ZM9.56166 23.1085C9.95738 23.3878 10.1893 23.6232 10.3313 23.8797C10.4711 24.1322 10.55 24.4533 10.55 24.95H11.55C11.55 24.3467 11.4539 23.8428 11.2062 23.3953C10.9607 22.9518 10.5926 22.6122 10.1383 22.2915L9.56166 23.1085ZM10.55 24.95V29.15H11.55V24.95H10.55ZM10.55 29.15C10.55 29.5056 10.4659 29.6645 10.3902 29.7402C10.3145 29.8159 10.1556 29.9 9.8 29.9V30.9C10.2944 30.9 10.7605 30.7841 11.0973 30.4473C11.4341 30.1105 11.55 29.6444 11.55 29.15H10.55ZM9.8 29.9H9.15V30.9H9.8V29.9ZM9.15 29.9C8.79443 29.9 8.63548 29.8159 8.5598 29.7402C8.48413 29.6645 8.4 29.5056 8.4 29.15H7.4C7.4 29.6444 7.51587 30.1105 7.8527 30.4473C8.18952 30.7841 8.65557 30.9 9.15 30.9V29.9ZM8.4 29.15V22.35H7.4V29.15H8.4ZM7.9 21.85H1.05V22.85H7.9V21.85ZM0.55 22.35V29.8H1.55V22.35H0.55ZM0.55 29.8C0.55 32.0506 1.10638 33.826 2.3152 35.0348C3.52401 36.2436 5.29939 36.8 7.55 36.8V35.8C5.45061 35.8 3.97599 35.2814 3.0223 34.3277C2.06862 33.374 1.55 31.8994 1.55 29.8H0.55ZM7.55 36.8H11.45V35.8H7.55V36.8ZM11.45 36.8C13.7006 36.8 15.476 36.2436 16.6848 35.0348C17.8936 33.826 18.45 32.0506 18.45 29.8H17.45C17.45 31.8994 16.9314 33.374 15.9777 34.3277C15.024 35.2814 13.5494 35.8 11.45 35.8V36.8ZM18.45 29.8V23.35H17.45V29.8H18.45ZM18.45 23.35C18.45 22.0116 18.2835 20.9358 17.8028 19.9813C17.3216 19.0259 16.552 18.2444 15.4424 17.4444L14.8576 18.2556C15.898 19.0056 16.5284 19.6741 16.9097 20.4312C17.2915 21.1892 17.45 22.0884 17.45 23.35H18.45ZM38.5547 36V36.5H39.1247L39.0504 35.9348L38.5547 36ZM33.9547 0.999998L34.4504 0.934844L34.3933 0.499998H33.9547V0.999998ZM24.4047 0.999998V0.499998H23.9661L23.909 0.934844L24.4047 0.999998ZM19.8047 36L19.309 35.9348L19.2347 36.5H19.8047V36ZM26.1547 36V36.5H26.6081L26.6523 36.0488L26.1547 36ZM26.6547 30.9V30.4H26.2013L26.1571 30.8512L26.6547 30.9ZM31.0547 30.9L31.5518 30.8464L31.5037 30.4H31.0547V30.9ZM31.6047 36L31.1076 36.0536L31.1557 36.5H31.6047V36ZM28.8547 9.55L29.3521 9.49944H28.3573L28.8547 9.55ZM30.4047 24.8V25.3H30.9581L30.9021 24.7494L30.4047 24.8ZM27.3047 24.8L26.8073 24.7494L26.7513 25.3H27.3047V24.8ZM39.0504 35.9348L34.4504 0.934844L33.459 1.06515L38.059 36.0652L39.0504 35.9348ZM33.9547 0.499998H24.4047V1.5H33.9547V0.499998ZM23.909 0.934844L19.309 35.9348L20.3004 36.0652L24.9004 1.06515L23.909 0.934844ZM19.8047 36.5H26.1547V35.5H19.8047V36.5ZM26.6523 36.0488L27.1523 30.9488L26.1571 30.8512L25.6571 35.9512L26.6523 36.0488ZM26.6547 31.4H31.0547V30.4H26.6547V31.4ZM30.5576 30.9536L31.1076 36.0536L32.1018 35.9464L31.5518 30.8464L30.5576 30.9536ZM31.6047 36.5H38.5547V35.5H31.6047V36.5ZM28.3573 9.60056L29.9073 24.8506L30.9021 24.7494L29.3521 9.49944L28.3573 9.60056ZM30.4047 24.3H27.3047V25.3H30.4047V24.3ZM27.8021 24.8506L29.3521 9.60056L28.3573 9.49944L26.8073 24.7494L27.8021 24.8506ZM41.043 0.999998V0.499998H40.543V0.999998H41.043ZM41.043 36H40.543V36.5H41.043V36ZM48.043 36V36.5H48.543V36H48.043ZM48.043 21.7V21.2H47.543V21.7H48.043ZM53.543 21.7V22.2H54.043V21.7H53.543ZM53.543 15.45H54.043V14.95H53.543V15.45ZM48.043 15.45H47.543V15.95H48.043V15.45ZM48.043 7.25V6.75H47.543V7.25H48.043ZM53.793 7.25V7.75H54.293V7.25H53.793ZM53.793 0.999998H54.293V0.499998H53.793V0.999998ZM40.543 0.999998V36H41.543V0.999998H40.543ZM41.043 36.5H48.043V35.5H41.043V36.5ZM48.543 36V21.7H47.543V36H48.543ZM48.043 22.2H53.543V21.2H48.043V22.2ZM54.043 21.7V15.45H53.043V21.7H54.043ZM53.543 14.95H48.043V15.95H53.543V14.95ZM48.543 15.45V7.25H47.543V15.45H48.543ZM48.043 7.75H53.793V6.75H48.043V7.75ZM54.293 7.25V0.999998H53.293V7.25H54.293ZM53.793 0.499998H41.043V1.5H53.793V0.499998ZM56.7402 0.999998V0.499998H56.2402V0.999998H56.7402ZM56.7402 36H56.2402V36.5H56.7402V36ZM69.8402 36V36.5H70.3402V36H69.8402ZM69.8402 29.75H70.3402V29.25H69.8402V29.75ZM63.7402 29.75H63.2402V30.25H63.7402V29.75ZM63.7402 21.35V20.85H63.2402V21.35H63.7402ZM69.4902 21.35V21.85H69.9902V21.35H69.4902ZM69.4902 15.1H69.9902V14.6H69.4902V15.1ZM63.7402 15.1H63.2402V15.6H63.7402V15.1ZM63.7402 7.25V6.75H63.2402V7.25H63.7402ZM69.7402 7.25V7.75H70.2402V7.25H69.7402ZM69.7402 0.999998H70.2402V0.499998H69.7402V0.999998ZM56.2402 0.999998V36H57.2402V0.999998H56.2402ZM56.7402 36.5H69.8402V35.5H56.7402V36.5ZM70.3402 36V29.75H69.3402V36H70.3402ZM69.8402 29.25H63.7402V30.25H69.8402V29.25ZM64.2402 29.75V21.35H63.2402V29.75H64.2402ZM63.7402 21.85H69.4902V20.85H63.7402V21.85ZM69.9902 21.35V15.1H68.9902V21.35H69.9902ZM69.4902 14.6H63.7402V15.6H69.4902V14.6ZM64.2402 15.1V7.25H63.2402V15.1H64.2402ZM63.7402 7.75H69.7402V6.75H63.7402V7.75ZM70.2402 7.25V0.999998H69.2402V7.25H70.2402ZM69.7402 0.499998H56.7402V1.5H69.7402V0.499998ZM94.8094 19.45L94.6365 18.9808L93.1847 19.5157L94.675 19.9316L94.8094 19.45ZM80.8594 0.999998V0.499998H80.3594V0.999998H80.8594ZM80.8594 36H80.3594V36.5H80.8594V36ZM87.8594 36V36.5H88.3594V36H87.8594ZM87.8594 22.75V22.25H87.3594V22.75H87.8594ZM90.8594 36H90.3594V36.5H90.8594V36ZM97.8594 36V36.5H98.3594V36H97.8594ZM87.8594 16.8H87.3594V17.3H87.8594V16.8ZM87.8594 7.1V6.6H87.3594V7.1H87.8594ZM94.9822 19.9192C96.0172 19.5379 96.8666 18.9241 97.4484 17.9735C98.0245 17.032 98.3094 15.8069 98.3094 14.25H97.3094C97.3094 15.6931 97.0443 16.718 96.5954 17.4515C96.1521 18.1759 95.5015 18.6621 94.6365 18.9808L94.9822 19.9192ZM98.3094 14.25V7.5H97.3094V14.25H98.3094ZM98.3094 7.5C98.3094 5.24939 97.753 3.47401 96.5442 2.26519C95.3354 1.05638 93.56 0.499998 91.3094 0.499998V1.5C93.4088 1.5 94.8834 2.01862 95.8371 2.9723C96.7908 3.92598 97.3094 5.40061 97.3094 7.5H98.3094ZM91.3094 0.499998H80.8594V1.5H91.3094V0.499998ZM80.3594 0.999998V36H81.3594V0.999998H80.3594ZM80.8594 36.5H87.8594V35.5H80.8594V36.5ZM88.3594 36V22.75H87.3594V36H88.3594ZM87.8594 23.25H89.6094V22.25H87.8594V23.25ZM89.6094 23.25C89.9649 23.25 90.1239 23.3341 90.1996 23.4098C90.2752 23.4855 90.3594 23.6444 90.3594 24H91.3594C91.3594 23.5056 91.2435 23.0395 90.9067 22.7027C90.5699 22.3659 90.1038 22.25 89.6094 22.25V23.25ZM90.3594 24V36H91.3594V24H90.3594ZM90.8594 36.5H97.8594V35.5H90.8594V36.5ZM98.3594 36V23.95H97.3594V36H98.3594ZM98.3594 23.95C98.3594 22.6235 98.1265 21.5354 97.555 20.689C96.9766 19.8323 96.0972 19.2903 94.9438 18.9684L94.675 19.9316C95.6716 20.2097 96.3172 20.6427 96.7262 21.2485C97.1422 21.8646 97.3594 22.7265 97.3594 23.95H98.3594ZM90.3094 8.35V15.55H91.3094V8.35H90.3094ZM90.3094 15.55C90.3094 15.9056 90.2252 16.0645 90.1496 16.1402C90.0739 16.2159 89.9149 16.3 89.5594 16.3V17.3C90.0538 17.3 90.5199 17.1841 90.8567 16.8473C91.1935 16.5105 91.3094 16.0444 91.3094 15.55H90.3094ZM89.5594 16.3H87.8594V17.3H89.5594V16.3ZM88.3594 16.8V7.1H87.3594V16.8H88.3594ZM87.8594 7.6H89.5594V6.6H87.8594V7.6ZM89.5594 7.6C89.9149 7.6 90.0739 7.68413 90.1496 7.7598C90.2252 7.83548 90.3094 7.99443 90.3094 8.35H91.3094C91.3094 7.85557 91.1935 7.38952 90.8567 7.05269C90.5199 6.71587 90.0538 6.6 89.5594 6.6V7.6ZM118.945 36V36.5H119.515L119.441 35.9348L118.945 36ZM114.345 0.999998L114.841 0.934844L114.784 0.499998H114.345V0.999998ZM104.795 0.999998V0.499998H104.357L104.3 0.934844L104.795 0.999998ZM100.195 36L99.6996 35.9348L99.6253 36.5H100.195V36ZM106.545 36V36.5H106.999L107.043 36.0488L106.545 36ZM107.045 30.9V30.4H106.592L106.548 30.8512L107.045 30.9ZM111.445 30.9L111.942 30.8464L111.894 30.4H111.445V30.9ZM111.995 36L111.498 36.0536L111.546 36.5H111.995V36ZM109.245 9.55L109.743 9.49944H108.748L109.245 9.55ZM110.795 24.8V25.3H111.349L111.293 24.7494L110.795 24.8ZM107.695 24.8L107.198 24.7494L107.142 25.3H107.695V24.8ZM119.441 35.9348L114.841 0.934844L113.85 1.06515L118.45 36.0652L119.441 35.9348ZM114.345 0.499998H104.795V1.5H114.345V0.499998ZM104.3 0.934844L99.6996 35.9348L100.691 36.0652L105.291 1.06515L104.3 0.934844ZM100.195 36.5H106.545V35.5H100.195V36.5ZM107.043 36.0488L107.543 30.9488L106.548 30.8512L106.048 35.9512L107.043 36.0488ZM107.045 31.4H111.445V30.4H107.045V31.4ZM110.948 30.9536L111.498 36.0536L112.492 35.9464L111.942 30.8464L110.948 30.9536ZM111.995 36.5H118.945V35.5H111.995V36.5ZM108.748 9.60056L110.298 24.8506L111.293 24.7494L109.743 9.49944L108.748 9.60056ZM110.795 24.3H107.695V25.3H110.795V24.3ZM108.193 24.8506L109.743 9.60056L108.748 9.49944L107.198 24.7494L108.193 24.8506ZM132.82 36V36.5H133.257L133.315 36.0665L132.82 36ZM137.52 0.999998L138.015 1.06654L138.092 0.499998H137.52V0.999998ZM131.02 0.999998V0.499998H130.569L130.523 0.948957L131.02 0.999998ZM128.47 25.85L127.972 25.8991L128.967 25.901L128.47 25.85ZM126.02 0.999998L126.518 0.95094L126.473 0.499998H126.02V0.999998ZM118.92 0.999998V0.499998H118.348L118.424 1.06654L118.92 0.999998ZM123.62 36L123.124 36.0665L123.183 36.5H123.62V36ZM133.315 36.0665L138.015 1.06654L137.024 0.933452L132.324 35.9335L133.315 36.0665ZM137.52 0.499998H131.02V1.5H137.52V0.499998ZM130.523 0.948957L127.973 25.799L128.967 25.901L131.517 1.05104L130.523 0.948957ZM128.968 25.8009L126.518 0.95094L125.522 1.04906L127.972 25.8991L128.968 25.8009ZM126.02 0.499998H118.92V1.5H126.02V0.499998ZM118.424 1.06654L123.124 36.0665L124.115 35.9335L119.415 0.933452L118.424 1.06654ZM123.62 36.5H132.82V35.5H123.62V36.5ZM140.012 0.999998V0.499998H139.512V0.999998H140.012ZM140.012 36H139.512V36.5H140.012V36ZM153.112 36V36.5H153.612V36H153.112ZM153.112 29.75H153.612V29.25H153.112V29.75ZM147.012 29.75H146.512V30.25H147.012V29.75ZM147.012 21.35V20.85H146.512V21.35H147.012ZM152.762 21.35V21.85H153.262V21.35H152.762ZM152.762 15.1H153.262V14.6H152.762V15.1ZM147.012 15.1H146.512V15.6H147.012V15.1ZM147.012 7.25V6.75H146.512V7.25H147.012ZM153.012 7.25V7.75H153.512V7.25H153.012ZM153.012 0.999998H153.512V0.499998H153.012V0.999998ZM139.512 0.999998V36H140.512V0.999998H139.512ZM140.012 36.5H153.112V35.5H140.012V36.5ZM153.612 36V29.75H152.612V36H153.612ZM153.112 29.25H147.012V30.25H153.112V29.25ZM147.512 29.75V21.35H146.512V29.75H147.512ZM147.012 21.85H152.762V20.85H147.012V21.85ZM153.262 21.35V15.1H152.262V21.35H153.262ZM152.762 14.6H147.012V15.6H152.762V14.6ZM147.512 15.1V7.25H146.512V15.1H147.512ZM147.012 7.75H153.012V6.75H147.012V7.75ZM153.512 7.25V0.999998H152.512V7.25H153.512ZM153.012 0.499998H140.012V1.5H153.012V0.499998ZM178.081 19.45L177.908 18.9808L176.456 19.5157L177.946 19.9316L178.081 19.45ZM164.131 0.999998V0.499998H163.631V0.999998H164.131ZM164.131 36H163.631V36.5H164.131V36ZM171.131 36V36.5H171.631V36H171.131ZM171.131 22.75V22.25H170.631V22.75H171.131ZM174.131 36H173.631V36.5H174.131V36ZM181.131 36V36.5H181.631V36H181.131ZM171.131 16.8H170.631V17.3H171.131V16.8ZM171.131 7.1V6.6H170.631V7.1H171.131ZM178.254 19.9192C179.289 19.5379 180.138 18.9241 180.72 17.9735C181.296 17.032 181.581 15.8069 181.581 14.25H180.581C180.581 15.6931 180.316 16.718 179.867 17.4515C179.424 18.1759 178.773 18.6621 177.908 18.9808L178.254 19.9192ZM181.581 14.25V7.5H180.581V14.25H181.581ZM181.581 7.5C181.581 5.24939 181.024 3.47401 179.816 2.26519C178.607 1.05638 176.831 0.499998 174.581 0.499998V1.5C176.68 1.5 178.155 2.01862 179.109 2.9723C180.062 3.92598 180.581 5.40061 180.581 7.5H181.581ZM174.581 0.499998H164.131V1.5H174.581V0.499998ZM163.631 0.999998V36H164.631V0.999998H163.631ZM164.131 36.5H171.131V35.5H164.131V36.5ZM171.631 36V22.75H170.631V36H171.631ZM171.131 23.25H172.881V22.25H171.131V23.25ZM172.881 23.25C173.236 23.25 173.395 23.3341 173.471 23.4098C173.547 23.4855 173.631 23.6444 173.631 24H174.631C174.631 23.5056 174.515 23.0395 174.178 22.7027C173.841 22.3659 173.375 22.25 172.881 22.25V23.25ZM173.631 24V36H174.631V24H173.631ZM174.131 36.5H181.131V35.5H174.131V36.5ZM181.631 36V23.95H180.631V36H181.631ZM181.631 23.95C181.631 22.6235 181.398 21.5354 180.826 20.689C180.248 19.8323 179.369 19.2903 178.215 18.9684L177.946 19.9316C178.943 20.2097 179.589 20.6427 179.998 21.2485C180.414 21.8646 180.631 22.7265 180.631 23.95H181.631ZM173.581 8.35V15.55H174.581V8.35H173.581ZM173.581 15.55C173.581 15.9056 173.497 16.0645 173.421 16.1402C173.345 16.2159 173.186 16.3 172.831 16.3V17.3C173.325 17.3 173.791 17.1841 174.128 16.8473C174.465 16.5105 174.581 16.0444 174.581 15.55H173.581ZM172.831 16.3H171.131V17.3H172.831V16.3ZM171.631 16.8V7.1H170.631V16.8H171.631ZM171.131 7.6H172.831V6.6H171.131V7.6ZM172.831 7.6C173.186 7.6 173.345 7.68413 173.421 7.7598C173.497 7.83548 173.581 7.99443 173.581 8.35H174.581C174.581 7.85557 174.465 7.38952 174.128 7.05269C173.791 6.71587 173.325 6.6 172.831 6.6V7.6ZM202.217 36V36.5H202.787L202.713 35.9348L202.217 36ZM197.617 0.999998L198.113 0.934844L198.055 0.499998H197.617V0.999998ZM188.067 0.999998V0.499998H187.628L187.571 0.934844L188.067 0.999998ZM183.467 36L182.971 35.9348L182.897 36.5H183.467V36ZM189.817 36V36.5H190.27L190.314 36.0488L189.817 36ZM190.317 30.9V30.4H189.863L189.819 30.8512L190.317 30.9ZM194.717 30.9L195.214 30.8464L195.166 30.4H194.717V30.9ZM195.267 36L194.77 36.0536L194.818 36.5H195.267V36ZM192.517 9.55L193.014 9.49944H192.019L192.517 9.55ZM194.067 24.8V25.3H194.62L194.564 24.7494L194.067 24.8ZM190.967 24.8L190.469 24.7494L190.413 25.3H190.967V24.8ZM202.713 35.9348L198.113 0.934844L197.121 1.06515L201.721 36.0652L202.713 35.9348ZM197.617 0.499998H188.067V1.5H197.617V0.499998ZM187.571 0.934844L182.971 35.9348L183.963 36.0652L188.563 1.06515L187.571 0.934844ZM183.467 36.5H189.817V35.5H183.467V36.5ZM190.314 36.0488L190.814 30.9488L189.819 30.8512L189.319 35.9512L190.314 36.0488ZM190.317 31.4H194.717V30.4H190.317V31.4ZM194.22 30.9536L194.77 36.0536L195.764 35.9464L195.214 30.8464L194.22 30.9536ZM195.267 36.5H202.217V35.5H195.267V36.5ZM192.019 9.60056L193.569 24.8506L194.564 24.7494L193.014 9.49944L192.019 9.60056ZM194.067 24.3H190.967V25.3H194.067V24.3ZM191.464 24.8506L193.014 9.60056L192.019 9.49944L190.469 24.7494L191.464 24.8506ZM216.091 36V36.5H216.529L216.587 36.0665L216.091 36ZM220.791 0.999998L221.287 1.06654L221.363 0.499998H220.791V0.999998ZM214.291 0.999998V0.499998H213.84L213.794 0.948957L214.291 0.999998ZM211.741 25.85L211.244 25.8991L212.239 25.901L211.741 25.85ZM209.291 0.999998L209.789 0.95094L209.745 0.499998H209.291V0.999998ZM202.191 0.999998V0.499998H201.62L201.696 1.06654L202.191 0.999998ZM206.891 36L206.396 36.0665L206.454 36.5H206.891V36ZM216.587 36.0665L221.287 1.06654L220.296 0.933452L215.596 35.9335L216.587 36.0665ZM220.791 0.499998H214.291V1.5H220.791V0.499998ZM213.794 0.948957L211.244 25.799L212.239 25.901L214.789 1.05104L213.794 0.948957ZM212.239 25.8009L209.789 0.95094L208.794 1.04906L211.244 25.8991L212.239 25.8009ZM209.291 0.499998H202.191V1.5H209.291V0.499998ZM201.696 1.06654L206.396 36.0665L207.387 35.9335L202.687 0.933452L201.696 1.06654ZM206.891 36.5H216.091V35.5H206.891V36.5ZM223.283 0.999998V0.499998H222.783V0.999998H223.283ZM223.283 36H222.783V36.5H223.283V36ZM236.383 36V36.5H236.883V36H236.383ZM236.383 29.75H236.883V29.25H236.383V29.75ZM230.283 29.75H229.783V30.25H230.283V29.75ZM230.283 21.35V20.85H229.783V21.35H230.283ZM236.033 21.35V21.85H236.533V21.35H236.033ZM236.033 15.1H236.533V14.6H236.033V15.1ZM230.283 15.1H229.783V15.6H230.283V15.1ZM230.283 7.25V6.75H229.783V7.25H230.283ZM236.283 7.25V7.75H236.783V7.25H236.283ZM236.283 0.999998H236.783V0.499998H236.283V0.999998ZM222.783 0.999998V36H223.783V0.999998H222.783ZM223.283 36.5H236.383V35.5H223.283V36.5ZM236.883 36V29.75H235.883V36H236.883ZM236.383 29.25H230.283V30.25H236.383V29.25ZM230.783 29.75V21.35H229.783V29.75H230.783ZM230.283 21.85H236.033V20.85H230.283V21.85ZM236.533 21.35V15.1H235.533V21.35H236.533ZM236.033 14.6H230.283V15.6H236.033V14.6ZM230.783 15.1V7.25H229.783V15.1H230.783ZM230.283 7.75H236.283V6.75H230.283V7.75ZM236.783 7.25V0.999998H235.783V7.25H236.783ZM236.283 0.499998H223.283V1.5H236.283V0.499998ZM261.302 17.85L261.004 18.2516L261.01 18.2556L261.302 17.85ZM255.302 13.4L255.6 12.9983L255.591 12.9915L255.302 13.4ZM257.152 13.6H256.652V14.1H257.152V13.6ZM264.002 13.6V14.1H264.502V13.6H264.002ZM250.002 18.25L250.3 17.8484L250.295 17.8444L250.002 18.25ZM256.002 22.7L255.704 23.1017L255.714 23.1085L256.002 22.7ZM254.052 22.35H254.552V21.85H254.052V22.35ZM247.202 22.35V21.85H246.702V22.35H247.202ZM261.6 17.4484L255.6 12.9984L255.004 13.8016L261.004 18.2516L261.6 17.4484ZM255.591 12.9915C255.195 12.7122 254.963 12.4768 254.821 12.2203C254.681 11.9678 254.602 11.6467 254.602 11.15H253.602C253.602 11.7533 253.698 12.2572 253.946 12.7047C254.192 13.1482 254.56 13.4878 255.014 13.8085L255.591 12.9915ZM254.602 11.15V7.85H253.602V11.15H254.602ZM254.602 7.85C254.602 7.49443 254.686 7.33548 254.762 7.2598C254.838 7.18413 254.997 7.1 255.352 7.1V6.1C254.858 6.1 254.392 6.21587 254.055 6.5527C253.718 6.88952 253.602 7.35557 253.602 7.85H254.602ZM255.352 7.1H255.902V6.1H255.352V7.1ZM255.902 7.1C256.258 7.1 256.417 7.18413 256.493 7.2598C256.568 7.33548 256.652 7.49443 256.652 7.85H257.652C257.652 7.35557 257.536 6.88952 257.2 6.5527C256.863 6.21587 256.397 6.1 255.902 6.1V7.1ZM256.652 7.85V13.6H257.652V7.85H256.652ZM257.152 14.1H264.002V13.1H257.152V14.1ZM264.502 13.6V7.2H263.502V13.6H264.502ZM264.502 7.2C264.502 4.94939 263.946 3.17401 262.737 1.96519C261.528 0.756377 259.753 0.199999 257.502 0.199999V1.2C259.602 1.2 261.076 1.71862 262.03 2.6723C262.984 3.62598 263.502 5.10061 263.502 7.2H264.502ZM257.502 0.199999H253.702V1.2H257.502V0.199999ZM253.702 0.199999C251.452 0.199999 249.676 0.756377 248.468 1.96519C247.259 3.17401 246.702 4.94939 246.702 7.2H247.702C247.702 5.10061 248.221 3.62598 249.175 2.6723C250.128 1.71862 251.603 1.2 253.702 1.2V0.199999ZM246.702 7.2V12.75H247.702V7.2H246.702ZM246.702 12.75C246.702 14.0412 246.87 15.1144 247.348 16.0786C247.828 17.0441 248.595 17.8517 249.71 18.6556L250.295 17.8444C249.26 17.0983 248.627 16.4059 248.244 15.6339C247.86 14.8605 247.702 13.9588 247.702 12.75H246.702ZM249.704 18.6516L255.704 23.1016L256.3 22.2984L250.3 17.8484L249.704 18.6516ZM255.714 23.1085C256.11 23.3878 256.342 23.6232 256.484 23.8797C256.623 24.1322 256.702 24.4533 256.702 24.95H257.702C257.702 24.3467 257.606 23.8428 257.359 23.3953C257.113 22.9518 256.745 22.6122 256.291 22.2915L255.714 23.1085ZM256.702 24.95V29.15H257.702V24.95H256.702ZM256.702 29.15C256.702 29.5056 256.618 29.6645 256.543 29.7402C256.467 29.8159 256.308 29.9 255.952 29.9V30.9C256.447 30.9 256.913 30.7841 257.25 30.4473C257.586 30.1105 257.702 29.6444 257.702 29.15H256.702ZM255.952 29.9H255.302V30.9H255.952V29.9ZM255.302 29.9C254.947 29.9 254.788 29.8159 254.712 29.7402C254.636 29.6645 254.552 29.5056 254.552 29.15H253.552C253.552 29.6444 253.668 30.1105 254.005 30.4473C254.342 30.7841 254.808 30.9 255.302 30.9V29.9ZM254.552 29.15V22.35H253.552V29.15H254.552ZM254.052 21.85H247.202V22.85H254.052V21.85ZM246.702 22.35V29.8H247.702V22.35H246.702ZM246.702 29.8C246.702 32.0506 247.259 33.826 248.468 35.0348C249.676 36.2436 251.452 36.8 253.702 36.8V35.8C251.603 35.8 250.128 35.2814 249.175 34.3277C248.221 33.374 247.702 31.8994 247.702 29.8H246.702ZM253.702 36.8H257.602V35.8H253.702V36.8ZM257.602 36.8C259.853 36.8 261.628 36.2436 262.837 35.0348C264.046 33.826 264.602 32.0506 264.602 29.8H263.602C263.602 31.8994 263.084 33.374 262.13 34.3277C261.176 35.2814 259.702 35.8 257.602 35.8V36.8ZM264.602 29.8V23.35H263.602V29.8H264.602ZM264.602 23.35C264.602 22.0116 264.436 20.9358 263.955 19.9813C263.474 19.0259 262.704 18.2444 261.595 17.4444L261.01 18.2556C262.05 19.0056 262.681 19.6741 263.062 20.4312C263.444 21.1892 263.602 22.0884 263.602 23.35H264.602ZM284.707 36V36.5H285.277L285.203 35.9348L284.707 36ZM280.107 0.999998L280.603 0.934844L280.546 0.499998H280.107V0.999998ZM270.557 0.999998V0.499998H270.118L270.061 0.934844L270.557 0.999998ZM265.957 36L265.461 35.9348L265.387 36.5H265.957V36ZM272.307 36V36.5H272.76L272.805 36.0488L272.307 36ZM272.807 30.9V30.4H272.354L272.309 30.8512L272.807 30.9ZM277.207 30.9L277.704 30.8464L277.656 30.4H277.207V30.9ZM277.757 36L277.26 36.0536L277.308 36.5H277.757V36ZM275.007 9.55L275.504 9.49944H274.51L275.007 9.55ZM276.557 24.8V25.3H277.11L277.054 24.7494L276.557 24.8ZM273.457 24.8L272.96 24.7494L272.904 25.3H273.457V24.8ZM285.203 35.9348L280.603 0.934844L279.611 1.06515L284.211 36.0652L285.203 35.9348ZM280.107 0.499998H270.557V1.5H280.107V0.499998ZM270.061 0.934844L265.461 35.9348L266.453 36.0652L271.053 1.06515L270.061 0.934844ZM265.957 36.5H272.307V35.5H265.957V36.5ZM272.805 36.0488L273.305 30.9488L272.309 30.8512L271.809 35.9512L272.805 36.0488ZM272.807 31.4H277.207V30.4H272.807V31.4ZM276.71 30.9536L277.26 36.0536L278.254 35.9464L277.704 30.8464L276.71 30.9536ZM277.757 36.5H284.707V35.5H277.757V36.5ZM274.51 9.60056L276.06 24.8506L277.054 24.7494L275.504 9.49944L274.51 9.60056ZM276.557 24.3H273.457V25.3H276.557V24.3ZM273.954 24.8506L275.504 9.60056L274.51 9.49944L272.96 24.7494L273.954 24.8506ZM287.195 0.999998V0.499998H286.695V0.999998H287.195ZM287.195 36H286.695V36.5H287.195V36ZM294.195 36V36.5H294.695V36H294.195ZM294.195 21.7V21.2H293.695V21.7H294.195ZM299.695 21.7V22.2H300.195V21.7H299.695ZM299.695 15.45H300.195V14.95H299.695V15.45ZM294.195 15.45H293.695V15.95H294.195V15.45ZM294.195 7.25V6.75H293.695V7.25H294.195ZM299.945 7.25V7.75H300.445V7.25H299.945ZM299.945 0.999998H300.445V0.499998H299.945V0.999998ZM286.695 0.999998V36H287.695V0.999998H286.695ZM287.195 36.5H294.195V35.5H287.195V36.5ZM294.695 36V21.7H293.695V36H294.695ZM294.195 22.2H299.695V21.2H294.195V22.2ZM300.195 21.7V15.45H299.195V21.7H300.195ZM299.695 14.95H294.195V15.95H299.695V14.95ZM294.695 15.45V7.25H293.695V15.45H294.695ZM294.195 7.75H299.945V6.75H294.195V7.75ZM300.445 7.25V0.999998H299.445V7.25H300.445ZM299.945 0.499998H287.195V1.5H299.945V0.499998ZM302.893 0.999998V0.499998H302.393V0.999998H302.893ZM302.893 36H302.393V36.5H302.893V36ZM315.993 36V36.5H316.493V36H315.993ZM315.993 29.75H316.493V29.25H315.993V29.75ZM309.893 29.75H309.393V30.25H309.893V29.75ZM309.893 21.35V20.85H309.393V21.35H309.893ZM315.643 21.35V21.85H316.143V21.35H315.643ZM315.643 15.1H316.143V14.6H315.643V15.1ZM309.893 15.1H309.393V15.6H309.893V15.1ZM309.893 7.25V6.75H309.393V7.25H309.893ZM315.893 7.25V7.75H316.393V7.25H315.893ZM315.893 0.999998H316.393V0.499998H315.893V0.999998ZM302.393 0.999998V36H303.393V0.999998H302.393ZM302.893 36.5H315.993V35.5H302.893V36.5ZM316.493 36V29.75H315.493V36H316.493ZM315.993 29.25H309.893V30.25H315.993V29.25ZM310.393 29.75V21.35H309.393V29.75H310.393ZM309.893 21.85H315.643V20.85H309.893V21.85ZM316.143 21.35V15.1H315.143V21.35H316.143ZM315.643 14.6H309.893V15.6H315.643V14.6ZM310.393 15.1V7.25H309.393V15.1H310.393ZM309.893 7.75H315.893V6.75H309.893V7.75ZM316.393 7.25V0.999998H315.393V7.25H316.393ZM315.893 0.499998H302.893V1.5H315.893V0.499998ZM340.962 19.45L340.789 18.9808L339.337 19.5157L340.827 19.9316L340.962 19.45ZM327.012 0.999998V0.499998H326.512V0.999998H327.012ZM327.012 36H326.512V36.5H327.012V36ZM334.012 36V36.5H334.512V36H334.012ZM334.012 22.75V22.25H333.512V22.75H334.012ZM337.012 36H336.512V36.5H337.012V36ZM344.012 36V36.5H344.512V36H344.012ZM334.012 16.8H333.512V17.3H334.012V16.8ZM334.012 7.1V6.6H333.512V7.1H334.012ZM341.135 19.9192C342.17 19.5379 343.019 18.9241 343.601 17.9735C344.177 17.032 344.462 15.8069 344.462 14.25H343.462C343.462 15.6931 343.197 16.718 342.748 17.4515C342.304 18.1759 341.654 18.6621 340.789 18.9808L341.135 19.9192ZM344.462 14.25V7.5H343.462V14.25H344.462ZM344.462 7.5C344.462 5.24939 343.905 3.47401 342.697 2.26519C341.488 1.05638 339.712 0.499998 337.462 0.499998V1.5C339.561 1.5 341.036 2.01862 341.989 2.9723C342.943 3.92598 343.462 5.40061 343.462 7.5H344.462ZM337.462 0.499998H327.012V1.5H337.462V0.499998ZM326.512 0.999998V36H327.512V0.999998H326.512ZM327.012 36.5H334.012V35.5H327.012V36.5ZM334.512 36V22.75H333.512V36H334.512ZM334.012 23.25H335.762V22.25H334.012V23.25ZM335.762 23.25C336.117 23.25 336.276 23.3341 336.352 23.4098C336.428 23.4855 336.512 23.6444 336.512 24H337.512C337.512 23.5056 337.396 23.0395 337.059 22.7027C336.722 22.3659 336.256 22.25 335.762 22.25V23.25ZM336.512 24V36H337.512V24H336.512ZM337.012 36.5H344.012V35.5H337.012V36.5ZM344.512 36V23.95H343.512V36H344.512ZM344.512 23.95C344.512 22.6235 344.279 21.5354 343.707 20.689C343.129 19.8323 342.25 19.2903 341.096 18.9684L340.827 19.9316C341.824 20.2097 342.47 20.6427 342.879 21.2485C343.295 21.8646 343.512 22.7265 343.512 23.95H344.512ZM336.462 8.35V15.55H337.462V8.35H336.462ZM336.462 15.55C336.462 15.9056 336.378 16.0645 336.302 16.1402C336.226 16.2159 336.067 16.3 335.712 16.3V17.3C336.206 17.3 336.672 17.1841 337.009 16.8473C337.346 16.5105 337.462 16.0444 337.462 15.55H336.462ZM335.712 16.3H334.012V17.3H335.712V16.3ZM334.512 16.8V7.1H333.512V16.8H334.512ZM334.012 7.6H335.712V6.6H334.012V7.6ZM335.712 7.6C336.067 7.6 336.226 7.68413 336.302 7.7598C336.378 7.83548 336.462 7.99443 336.462 8.35H337.462C337.462 7.85557 337.346 7.38952 337.009 7.05269C336.672 6.71587 336.206 6.6 335.712 6.6V7.6ZM365.098 36V36.5H365.668L365.593 35.9348L365.098 36ZM360.498 0.999998L360.993 0.934844L360.936 0.499998H360.498V0.999998ZM350.948 0.999998V0.499998H350.509L350.452 0.934844L350.948 0.999998ZM346.348 36L345.852 35.9348L345.778 36.5H346.348V36ZM352.698 36V36.5H353.151L353.195 36.0488L352.698 36ZM353.198 30.9V30.4H352.744L352.7 30.8512L353.198 30.9ZM357.598 30.9L358.095 30.8464L358.047 30.4H357.598V30.9ZM358.148 36L357.651 36.0536L357.699 36.5H358.148V36ZM355.398 9.55L355.895 9.49944H354.9L355.398 9.55ZM356.948 24.8V25.3H357.501L357.445 24.7494L356.948 24.8ZM353.848 24.8L353.35 24.7494L353.294 25.3H353.848V24.8ZM365.593 35.9348L360.993 0.934844L360.002 1.06515L364.602 36.0652L365.593 35.9348ZM360.498 0.499998H350.948V1.5H360.498V0.499998ZM350.452 0.934844L345.852 35.9348L346.843 36.0652L351.443 1.06515L350.452 0.934844ZM346.348 36.5H352.698V35.5H346.348V36.5ZM353.195 36.0488L353.695 30.9488L352.7 30.8512L352.2 35.9512L353.195 36.0488ZM353.198 31.4H357.598V30.4H353.198V31.4ZM357.101 30.9536L357.651 36.0536L358.645 35.9464L358.095 30.8464L357.101 30.9536ZM358.148 36.5H365.098V35.5H358.148V36.5ZM354.9 9.60056L356.45 24.8506L357.445 24.7494L355.895 9.49944L354.9 9.60056ZM356.948 24.3H353.848V25.3H356.948V24.3ZM354.345 24.8506L355.895 9.60056L354.9 9.49944L353.35 24.7494L354.345 24.8506ZM378.972 36V36.5H379.41L379.468 36.0665L378.972 36ZM383.672 0.999998L384.168 1.06654L384.244 0.499998H383.672V0.999998ZM377.172 0.999998V0.499998H376.721L376.675 0.948957L377.172 0.999998ZM374.622 25.85L374.125 25.8991L375.12 25.901L374.622 25.85ZM372.172 0.999998L372.67 0.95094L372.625 0.499998H372.172V0.999998ZM365.072 0.999998V0.499998H364.501L364.577 1.06654L365.072 0.999998ZM369.772 36L369.277 36.0665L369.335 36.5H369.772V36ZM379.468 36.0665L384.168 1.06654L383.177 0.933452L378.477 35.9335L379.468 36.0665ZM383.672 0.499998H377.172V1.5H383.672V0.499998ZM376.675 0.948957L374.125 25.799L375.12 25.901L377.67 1.05104L376.675 0.948957ZM375.12 25.8009L372.67 0.95094L371.675 1.04906L374.125 25.8991L375.12 25.8009ZM372.172 0.499998H365.072V1.5H372.172V0.499998ZM364.577 1.06654L369.277 36.0665L370.268 35.9335L365.568 0.933452L364.577 1.06654ZM369.772 36.5H378.972V35.5H369.772V36.5ZM386.164 0.999998V0.499998H385.664V0.999998H386.164ZM386.164 36H385.664V36.5H386.164V36ZM399.264 36V36.5H399.764V36H399.264ZM399.264 29.75H399.764V29.25H399.264V29.75ZM393.164 29.75H392.664V30.25H393.164V29.75ZM393.164 21.35V20.85H392.664V21.35H393.164ZM398.914 21.35V21.85H399.414V21.35H398.914ZM398.914 15.1H399.414V14.6H398.914V15.1ZM393.164 15.1H392.664V15.6H393.164V15.1ZM393.164 7.25V6.75H392.664V7.25H393.164ZM399.164 7.25V7.75H399.664V7.25H399.164ZM399.164 0.999998H399.664V0.499998H399.164V0.999998ZM385.664 0.999998V36H386.664V0.999998H385.664ZM386.164 36.5H399.264V35.5H386.164V36.5ZM399.764 36V29.75H398.764V36H399.764ZM399.264 29.25H393.164V30.25H399.264V29.25ZM393.664 29.75V21.35H392.664V29.75H393.664ZM393.164 21.85H398.914V20.85H393.164V21.85ZM399.414 21.35V15.1H398.414V21.35H399.414ZM398.914 14.6H393.164V15.6H398.914V14.6ZM393.664 15.1V7.25H392.664V15.1H393.664ZM393.164 7.75H399.164V6.75H393.164V7.75ZM399.664 7.25V0.999998H398.664V7.25H399.664ZM399.164 0.499998H386.164V1.5H399.164V0.499998ZM424.233 19.45L424.06 18.9808L422.609 19.5157L424.099 19.9316L424.233 19.45ZM410.283 0.999998V0.499998H409.783V0.999998H410.283ZM410.283 36H409.783V36.5H410.283V36ZM417.283 36V36.5H417.783V36H417.283ZM417.283 22.75V22.25H416.783V22.75H417.283ZM420.283 36H419.783V36.5H420.283V36ZM427.283 36V36.5H427.783V36H427.283ZM417.283 16.8H416.783V17.3H417.283V16.8ZM417.283 7.1V6.6H416.783V7.1H417.283ZM424.406 19.9192C425.441 19.5379 426.29 18.9241 426.872 17.9735C427.448 17.032 427.733 15.8069 427.733 14.25H426.733C426.733 15.6931 426.468 16.718 426.019 17.4515C425.576 18.1759 424.925 18.6621 424.06 18.9808L424.406 19.9192ZM427.733 14.25V7.5H426.733V14.25H427.733ZM427.733 7.5C427.733 5.24939 427.177 3.47401 425.968 2.26519C424.759 1.05638 422.984 0.499998 420.733 0.499998V1.5C422.833 1.5 424.307 2.01862 425.261 2.9723C426.215 3.92598 426.733 5.40061 426.733 7.5H427.733ZM420.733 0.499998H410.283V1.5H420.733V0.499998ZM409.783 0.999998V36H410.783V0.999998H409.783ZM410.283 36.5H417.283V35.5H410.283V36.5ZM417.783 36V22.75H416.783V36H417.783ZM417.283 23.25H419.033V22.25H417.283V23.25ZM419.033 23.25C419.389 23.25 419.548 23.3341 419.623 23.4098C419.699 23.4855 419.783 23.6444 419.783 24H420.783C420.783 23.5056 420.667 23.0395 420.331 22.7027C419.994 22.3659 419.528 22.25 419.033 22.25V23.25ZM419.783 24V36H420.783V24H419.783ZM420.283 36.5H427.283V35.5H420.283V36.5ZM427.783 36V23.95H426.783V36H427.783ZM427.783 23.95C427.783 22.6235 427.55 21.5354 426.979 20.689C426.4 19.8323 425.521 19.2903 424.368 18.9684L424.099 19.9316C425.095 20.2097 425.741 20.6427 426.15 21.2485C426.566 21.8646 426.783 22.7265 426.783 23.95H427.783ZM419.733 8.35V15.55H420.733V8.35H419.733ZM419.733 15.55C419.733 15.9056 419.649 16.0645 419.573 16.1402C419.498 16.2159 419.339 16.3 418.983 16.3V17.3C419.478 17.3 419.944 17.1841 420.281 16.8473C420.617 16.5105 420.733 16.0444 420.733 15.55H419.733ZM418.983 16.3H417.283V17.3H418.983V16.3ZM417.783 16.8V7.1H416.783V16.8H417.783ZM417.283 7.6H418.983V6.6H417.283V7.6ZM418.983 7.6C419.339 7.6 419.498 7.68413 419.573 7.7598C419.649 7.83548 419.733 7.99443 419.733 8.35H420.733C420.733 7.85557 420.617 7.38952 420.281 7.05269C419.944 6.71587 419.478 6.6 418.983 6.6V7.6ZM448.369 36V36.5H448.939L448.865 35.9348L448.369 36ZM443.769 0.999998L444.265 0.934844L444.208 0.499998H443.769V0.999998ZM434.219 0.999998V0.499998H433.781L433.723 0.934844L434.219 0.999998ZM429.619 36L429.123 35.9348L429.049 36.5H429.619V36ZM435.969 36V36.5H436.423L436.467 36.0488L435.969 36ZM436.469 30.9V30.4H436.016L435.972 30.8512L436.469 30.9ZM440.869 30.9L441.366 30.8464L441.318 30.4H440.869V30.9ZM441.419 36L440.922 36.0536L440.97 36.5H441.419V36ZM438.669 9.55L439.167 9.49944H438.172L438.669 9.55ZM440.219 24.8V25.3H440.773L440.717 24.7494L440.219 24.8ZM437.119 24.8L436.622 24.7494L436.566 25.3H437.119V24.8ZM448.865 35.9348L444.265 0.934844L443.273 1.06515L447.873 36.0652L448.865 35.9348ZM443.769 0.499998H434.219V1.5H443.769V0.499998ZM433.723 0.934844L429.123 35.9348L430.115 36.0652L434.715 1.06515L433.723 0.934844ZM429.619 36.5H435.969V35.5H429.619V36.5ZM436.467 36.0488L436.967 30.9488L435.972 30.8512L435.472 35.9512L436.467 36.0488ZM436.469 31.4H440.869V30.4H436.469V31.4ZM440.372 30.9536L440.922 36.0536L441.916 35.9464L441.366 30.8464L440.372 30.9536ZM441.419 36.5H448.369V35.5H441.419V36.5ZM438.172 9.60056L439.722 24.8506L440.717 24.7494L439.167 9.49944L438.172 9.60056ZM440.219 24.3H437.119V25.3H440.219V24.3ZM437.617 24.8506L439.167 9.60056L438.172 9.49944L436.622 24.7494L437.617 24.8506ZM462.244 36V36.5H462.681L462.739 36.0665L462.244 36ZM466.944 0.999998L467.439 1.06654L467.515 0.499998H466.944V0.999998ZM460.444 0.999998V0.499998H459.992L459.946 0.948957L460.444 0.999998ZM457.894 25.85L457.396 25.8991L458.391 25.901L457.894 25.85ZM455.444 0.999998L455.941 0.95094L455.897 0.499998H455.444V0.999998ZM448.344 0.999998V0.499998H447.772L447.848 1.06654L448.344 0.999998ZM453.044 36L452.548 36.0665L452.606 36.5H453.044V36ZM462.739 36.0665L467.439 1.06654L466.448 0.933452L461.748 35.9335L462.739 36.0665ZM466.944 0.499998H460.444V1.5H466.944V0.499998ZM459.946 0.948957L457.396 25.799L458.391 25.901L460.941 1.05104L459.946 0.948957ZM458.391 25.8009L455.941 0.95094L454.946 1.04906L457.396 25.8991L458.391 25.8009ZM455.444 0.499998H448.344V1.5H455.444V0.499998ZM447.848 1.06654L452.548 36.0665L453.539 35.9335L448.839 0.933452L447.848 1.06654ZM453.044 36.5H462.244V35.5H453.044V36.5ZM469.436 0.999998V0.499998H468.936V0.999998H469.436ZM469.436 36H468.936V36.5H469.436V36ZM482.536 36V36.5H483.036V36H482.536ZM482.536 29.75H483.036V29.25H482.536V29.75ZM476.436 29.75H475.936V30.25H476.436V29.75ZM476.436 21.35V20.85H475.936V21.35H476.436ZM482.186 21.35V21.85H482.686V21.35H482.186ZM482.186 15.1H482.686V14.6H482.186V15.1ZM476.436 15.1H475.936V15.6H476.436V15.1ZM476.436 7.25V6.75H475.936V7.25H476.436ZM482.436 7.25V7.75H482.936V7.25H482.436ZM482.436 0.999998H482.936V0.499998H482.436V0.999998ZM468.936 0.999998V36H469.936V0.999998H468.936ZM469.436 36.5H482.536V35.5H469.436V36.5ZM483.036 36V29.75H482.036V36H483.036ZM482.536 29.25H476.436V30.25H482.536V29.25ZM476.936 29.75V21.35H475.936V29.75H476.936ZM476.436 21.85H482.186V20.85H476.436V21.85ZM482.686 21.35V15.1H481.686V21.35H482.686ZM482.186 14.6H476.436V15.6H482.186V14.6ZM476.936 15.1V7.25H475.936V15.1H476.936ZM476.436 7.75H482.436V6.75H476.436V7.75ZM482.936 7.25V0.999998H481.936V7.25H482.936ZM482.436 0.499998H469.436V1.5H482.436V0.499998ZM507.455 17.85L507.157 18.2516L507.162 18.2556L507.455 17.85ZM501.455 13.4L501.753 12.9983L501.743 12.9915L501.455 13.4ZM503.305 13.6H502.805V14.1H503.305V13.6ZM510.155 13.6V14.1H510.655V13.6H510.155ZM496.155 18.25L496.453 17.8484L496.447 17.8444L496.155 18.25ZM502.155 22.7L501.857 23.1017L501.866 23.1085L502.155 22.7ZM500.205 22.35H500.705V21.85H500.205V22.35ZM493.355 22.35V21.85H492.855V22.35H493.355ZM507.753 17.4484L501.753 12.9984L501.157 13.8016L507.157 18.2516L507.753 17.4484ZM501.743 12.9915C501.347 12.7122 501.115 12.4768 500.973 12.2203C500.834 11.9678 500.755 11.6467 500.755 11.15H499.755C499.755 11.7533 499.851 12.2572 500.098 12.7047C500.344 13.1482 500.712 13.4878 501.166 13.8085L501.743 12.9915ZM500.755 11.15V7.85H499.755V11.15H500.755ZM500.755 7.85C500.755 7.49443 500.839 7.33548 500.914 7.2598C500.99 7.18413 501.149 7.1 501.505 7.1V6.1C501.01 6.1 500.544 6.21587 500.207 6.5527C499.871 6.88952 499.755 7.35557 499.755 7.85H500.755ZM501.505 7.1H502.055V6.1H501.505V7.1ZM502.055 7.1C502.41 7.1 502.569 7.18413 502.645 7.2598C502.721 7.33548 502.805 7.49443 502.805 7.85H503.805C503.805 7.35557 503.689 6.88952 503.352 6.5527C503.015 6.21587 502.549 6.1 502.055 6.1V7.1ZM502.805 7.85V13.6H503.805V7.85H502.805ZM503.305 14.1H510.155V13.1H503.305V14.1ZM510.655 13.6V7.2H509.655V13.6H510.655ZM510.655 7.2C510.655 4.94939 510.098 3.17401 508.889 1.96519C507.681 0.756377 505.905 0.199999 503.655 0.199999V1.2C505.754 1.2 507.229 1.71862 508.182 2.6723C509.136 3.62598 509.655 5.10061 509.655 7.2H510.655ZM503.655 0.199999H499.855V1.2H503.655V0.199999ZM499.855 0.199999C497.604 0.199999 495.829 0.756377 494.62 1.96519C493.411 3.17401 492.855 4.94939 492.855 7.2H493.855C493.855 5.10061 494.373 3.62598 495.327 2.6723C496.281 1.71862 497.755 1.2 499.855 1.2V0.199999ZM492.855 7.2V12.75H493.855V7.2H492.855ZM492.855 12.75C492.855 14.0412 493.022 15.1144 493.501 16.0786C493.98 17.0441 494.747 17.8517 495.862 18.6556L496.447 17.8444C495.412 17.0983 494.779 16.4059 494.396 15.6339C494.012 14.8605 493.855 13.9588 493.855 12.75H492.855ZM495.857 18.6516L501.857 23.1016L502.453 22.2984L496.453 17.8484L495.857 18.6516ZM501.866 23.1085C502.262 23.3878 502.494 23.6232 502.636 23.8797C502.776 24.1322 502.855 24.4533 502.855 24.95H503.855C503.855 24.3467 503.759 23.8428 503.511 23.3953C503.265 22.9518 502.897 22.6122 502.443 22.2915L501.866 23.1085ZM502.855 24.95V29.15H503.855V24.95H502.855ZM502.855 29.15C502.855 29.5056 502.771 29.6645 502.695 29.7402C502.619 29.8159 502.46 29.9 502.105 29.9V30.9C502.599 30.9 503.065 30.7841 503.402 30.4473C503.739 30.1105 503.855 29.6444 503.855 29.15H502.855ZM502.105 29.9H501.455V30.9H502.105V29.9ZM501.455 29.9C501.099 29.9 500.94 29.8159 500.865 29.7402C500.789 29.6645 500.705 29.5056 500.705 29.15H499.705C499.705 29.6444 499.821 30.1105 500.157 30.4473C500.494 30.7841 500.96 30.9 501.455 30.9V29.9ZM500.705 29.15V22.35H499.705V29.15H500.705ZM500.205 21.85H493.355V22.85H500.205V21.85ZM492.855 22.35V29.8H493.855V22.35H492.855ZM492.855 29.8C492.855 32.0506 493.411 33.826 494.62 35.0348C495.829 36.2436 497.604 36.8 499.855 36.8V35.8C497.755 35.8 496.281 35.2814 495.327 34.3277C494.373 33.374 493.855 31.8994 493.855 29.8H492.855ZM499.855 36.8H503.755V35.8H499.855V36.8ZM503.755 36.8C506.005 36.8 507.781 36.2436 508.99 35.0348C510.198 33.826 510.755 32.0506 510.755 29.8H509.755C509.755 31.8994 509.236 33.374 508.282 34.3277C507.329 35.2814 505.854 35.8 503.755 35.8V36.8ZM510.755 29.8V23.35H509.755V29.8H510.755ZM510.755 23.35C510.755 22.0116 510.588 20.9358 510.108 19.9813C509.626 19.0259 508.857 18.2444 507.747 17.4444L507.162 18.2556C508.203 19.0056 508.833 19.6741 509.214 20.4312C509.596 21.1892 509.755 22.0884 509.755 23.35H510.755ZM530.859 36V36.5H531.429L531.355 35.9348L530.859 36ZM526.259 0.999998L526.755 0.934844L526.698 0.499998H526.259V0.999998ZM516.709 0.999998V0.499998H516.271L516.214 0.934844L516.709 0.999998ZM512.109 36L511.614 35.9348L511.539 36.5H512.109V36ZM518.459 36V36.5H518.913L518.957 36.0488L518.459 36ZM518.959 30.9V30.4H518.506L518.462 30.8512L518.959 30.9ZM523.359 30.9L523.857 30.8464L523.808 30.4H523.359V30.9ZM523.909 36L523.412 36.0536L523.46 36.5H523.909V36ZM521.159 9.55L521.657 9.49944H520.662L521.159 9.55ZM522.709 24.8V25.3H523.263L523.207 24.7494L522.709 24.8ZM519.609 24.8L519.112 24.7494L519.056 25.3H519.609V24.8ZM531.355 35.9348L526.755 0.934844L525.764 1.06515L530.364 36.0652L531.355 35.9348ZM526.259 0.499998H516.709V1.5H526.259V0.499998ZM516.214 0.934844L511.614 35.9348L512.605 36.0652L517.205 1.06515L516.214 0.934844ZM512.109 36.5H518.459V35.5H512.109V36.5ZM518.957 36.0488L519.457 30.9488L518.462 30.8512L517.962 35.9512L518.957 36.0488ZM518.959 31.4H523.359V30.4H518.959V31.4ZM522.862 30.9536L523.412 36.0536L524.406 35.9464L523.857 30.8464L522.862 30.9536ZM523.909 36.5H530.859V35.5H523.909V36.5ZM520.662 9.60056L522.212 24.8506L523.207 24.7494L521.657 9.49944L520.662 9.60056ZM522.709 24.3H519.609V25.3H522.709V24.3ZM520.107 24.8506L521.657 9.60056L520.662 9.49944L519.112 24.7494L520.107 24.8506ZM533.348 0.999998V0.499998H532.848V0.999998H533.348ZM533.348 36H532.848V36.5H533.348V36ZM540.348 36V36.5H540.848V36H540.348ZM540.348 21.7V21.2H539.848V21.7H540.348ZM545.848 21.7V22.2H546.348V21.7H545.848ZM545.848 15.45H546.348V14.95H545.848V15.45ZM540.348 15.45H539.848V15.95H540.348V15.45ZM540.348 7.25V6.75H539.848V7.25H540.348ZM546.098 7.25V7.75H546.598V7.25H546.098ZM546.098 0.999998H546.598V0.499998H546.098V0.999998ZM532.848 0.999998V36H533.848V0.999998H532.848ZM533.348 36.5H540.348V35.5H533.348V36.5ZM540.848 36V21.7H539.848V36H540.848ZM540.348 22.2H545.848V21.2H540.348V22.2ZM546.348 21.7V15.45H545.348V21.7H546.348ZM545.848 14.95H540.348V15.95H545.848V14.95ZM540.848 15.45V7.25H539.848V15.45H540.848ZM540.348 7.75H546.098V6.75H540.348V7.75ZM546.598 7.25V0.999998H545.598V7.25H546.598ZM546.098 0.499998H533.348V1.5H546.098V0.499998ZM549.045 0.999998V0.499998H548.545V0.999998H549.045ZM549.045 36H548.545V36.5H549.045V36ZM562.145 36V36.5H562.645V36H562.145ZM562.145 29.75H562.645V29.25H562.145V29.75ZM556.045 29.75H555.545V30.25H556.045V29.75ZM556.045 21.35V20.85H555.545V21.35H556.045ZM561.795 21.35V21.85H562.295V21.35H561.795ZM561.795 15.1H562.295V14.6H561.795V15.1ZM556.045 15.1H555.545V15.6H556.045V15.1ZM556.045 7.25V6.75H555.545V7.25H556.045ZM562.045 7.25V7.75H562.545V7.25H562.045ZM562.045 0.999998H562.545V0.499998H562.045V0.999998ZM548.545 0.999998V36H549.545V0.999998H548.545ZM549.045 36.5H562.145V35.5H549.045V36.5ZM562.645 36V29.75H561.645V36H562.645ZM562.145 29.25H556.045V30.25H562.145V29.25ZM556.545 29.75V21.35H555.545V29.75H556.545ZM556.045 21.85H561.795V20.85H556.045V21.85ZM562.295 21.35V15.1H561.295V21.35H562.295ZM561.795 14.6H556.045V15.6H561.795V14.6ZM556.545 15.1V7.25H555.545V15.1H556.545ZM556.045 7.75H562.045V6.75H556.045V7.75ZM562.545 7.25V0.999998H561.545V7.25H562.545ZM562.045 0.499998H549.045V1.5H562.045V0.499998Z" fill="black"></path>
</svg>
